<?xml version="1.0" encoding="UTF-8" standalone="no"?>
<!-- Created with Inkscape (http://www.inkscape.org/) -->

<svg
   width="111.125mm"
   height="100.54166mm"
   viewBox="0 0 111.125 100.54167"
   version="1.1"
   id="svg5"
   inkscape:version="1.1 (c68e22c387, 2021-05-23)"
   sodipodi:docname="tab.svg"
   inkscape:export-filename="C:\Users\joistw\ahklib\绘图.png"
   inkscape:export-xdpi="96"
   inkscape:export-ydpi="96"
   xmlns:inkscape="http://www.inkscape.org/namespaces/inkscape"
   xmlns:sodipodi="http://sodipodi.sourceforge.net/DTD/sodipodi-0.dtd"
   xmlns:xlink="http://www.w3.org/1999/xlink"
   xmlns="http://www.w3.org/2000/svg"
   xmlns:svg="http://www.w3.org/2000/svg">
  <sodipodi:namedview
     id="namedview7"
     pagecolor="#ffffff"
     bordercolor="#666666"
     borderopacity="1.0"
     inkscape:pageshadow="2"
     inkscape:pageopacity="0.0"
     inkscape:pagecheckerboard="0"
     inkscape:document-units="mm"
     showgrid="true"
     inkscape:zoom="0.46235269"
     inkscape:cx="425.00023"
     inkscape:cy="216.2851"
     inkscape:window-width="1366"
     inkscape:window-height="705"
     inkscape:window-x="-8"
     inkscape:window-y="-8"
     inkscape:window-maximized="1"
     inkscape:current-layer="layer2"
     fit-margin-top="0"
     fit-margin-left="0"
     fit-margin-right="0"
     fit-margin-bottom="0">
    <inkscape:grid
       type="xygrid"
       id="grid3403"
       originx="7.5025176e-09"
       originy="1.2481022e-07" />
  </sodipodi:namedview>
  <defs
     id="defs2">
    <g
       id="g7529">
      <symbol
         overflow="visible"
         id="symbol6910">
        <path
           style="stroke:none;"
           d=""
           id="path758" />
      </symbol>
      <symbol
         overflow="visible"
         id="symbol1639">
        <path
           style="stroke:none;"
           d="M 3.109375 -3.46875 L 4.234375 -3.46875 C 4 -2.546875 3.890625 -1.9375 3.890625 -1.34375 C 3.890625 -0.671875 4.078125 0.09375 4.5625 0.09375 C 4.890625 0.09375 5.25 -0.234375 5.25 -0.5625 C 5.25 -0.671875 5.21875 -0.734375 5.125 -0.890625 C 4.671875 -1.6875 4.671875 -2.46875 4.671875 -2.734375 C 4.671875 -2.96875 4.671875 -3.078125 4.71875 -3.46875 L 5.96875 -3.46875 C 6.15625 -3.46875 6.3125 -3.46875 6.453125 -3.625 C 6.53125 -3.6875 6.65625 -3.8125 6.65625 -4.03125 C 6.65625 -4.421875 6.3125 -4.421875 6.125 -4.421875 L 2.21875 -4.421875 C 2 -4.421875 1.578125 -4.421875 1.046875 -3.953125 C 0.703125 -3.625 0.3125 -3.125 0.3125 -3.015625 C 0.3125 -2.875 0.421875 -2.875 0.53125 -2.875 C 0.6875 -2.875 0.703125 -2.890625 0.78125 -3 C 1.171875 -3.46875 1.828125 -3.46875 2.015625 -3.46875 L 2.609375 -3.46875 C 2.359375 -2.6875 1.96875 -1.859375 1.421875 -0.859375 C 1.265625 -0.5625 1.234375 -0.515625 1.234375 -0.375 C 1.234375 -0.09375 1.453125 0.078125 1.71875 0.078125 C 1.921875 0.078125 2.078125 -0.03125 2.140625 -0.09375 C 2.296875 -0.234375 2.296875 -0.28125 2.359375 -0.484375 Z M 3.109375 -3.46875 "
           id="path7325" />
      </symbol>
    </g>
  </defs>
  <g
     inkscape:groupmode="layer"
     id="layer3"
     inkscape:label="图层 0"
     transform="translate(0.23067793,-1.3357353)"
     style="display:inline">
    <rect
       style="fill:#ff9955;fill-opacity:1;stroke:none;stroke-width:14.825;stroke-miterlimit:4;stroke-dasharray:none;stroke-opacity:1"
       id="rect6517"
       width="111.125"
       height="100.54166"
       x="-0.23067793"
       y="1.3357353" />
  </g>
  <g
     inkscape:label="图层 2"
     inkscape:groupmode="layer"
     id="layer1"
     style="display:inline">
    <text
       xml:space="preserve"
       style="font-style:normal;font-variant:normal;font-weight:bold;font-stretch:normal;font-size:84.5505px;line-height:1.25;font-family:'Comic Sans MS';-inkscape-font-specification:'Comic Sans MS, Bold';font-variant-ligatures:normal;font-variant-caps:normal;font-variant-numeric:normal;font-variant-east-asian:normal;fill:#000000;fill-opacity:1;stroke:none;stroke-width:2.11378"
       x="-0.087396696"
       y="66.50985"
       id="text2331"
       transform="scale(0.7088027,1.4108298)"><tspan
         sodipodi:role="line"
         id="tspan2329"
         style="font-style:normal;font-variant:normal;font-weight:bold;font-stretch:normal;font-size:84.5505px;font-family:'Comic Sans MS';-inkscape-font-specification:'Comic Sans MS, Bold';font-variant-ligatures:normal;font-variant-caps:normal;font-variant-numeric:normal;font-variant-east-asian:normal;fill:#000000;fill-opacity:1;stroke-width:2.11378"
         x="-0.087396696"
         y="66.50985">Tab</tspan></text>
  </g>
  <g
     inkscape:groupmode="layer"
     id="layer2"
     inkscape:label="图层 1"
     style="display:inline"
     transform="translate(0.230678, -1.33574)">
    <g
       inkscape:label=""
       transform="matrix(8.2004982,0,0,10.884753,-755.7219,-793.39336)"
       id="g7954"
       style="fill:#00ff00;fill-opacity:1">
      <g
         id="g3906"
         style="fill:#00ff00;fill-opacity:1">
        <g
           style="fill:#00ff00;fill-opacity:1"
           id="g982">
          <use
             xlink:href="#symbol1639"
             x="91.925003"
             y="81.962997"
             id="use920"
             width="100%"
             height="100%"
             style="fill:#00ff00;fill-opacity:1" />
        </g>
      </g>
    </g>
  </g>
</svg>
